<svg width="14" height="18" viewBox="0 0 14 18" fill="none" xmlns="http://www.w3.org/2000/svg">
<path d="M4 3C4 1.34315 5.34315 0 7 0C8.65685 0 10 1.34315 10 3V8C10 9.65685 8.65685 11 7 11C5.34315 11 4 9.65685 4 8V3Z" fill="white"/>
<path d="M1 6C1.55228 6 2 6.44771 2 7V8C2 10.7614 4.23858 13 7 13C9.76142 13 12 10.7614 12 8V7C12 6.44771 12.4477 6 13 6C13.5523 6 14 6.44771 14 7V8C14 11.5273 11.391 14.4453 7.99755 14.9295C7.99918 14.9528 8 14.9763 8 15V17C8 17.5523 7.55229 18 7 18C6.44771 18 6 17.5523 6 17V15C6 14.9763 6.00082 14.9528 6.00245 14.9295C2.60896 14.4453 0 11.5273 0 8V7C0 6.44771 0.447715 6 1 6Z" fill="white"/>
</svg>
