<svg width="32" height="32" viewBox="0 0 32 32" fill="none" xmlns="http://www.w3.org/2000/svg">
<path d="M18.8291 16.0006L13 10.1716V10C13 8.34315 14.3431 7 16 7C17.6569 7 19 8.34315 19 10V15C19 15.3509 18.9398 15.6877 18.8291 16.0006Z" fill="#999999"/>
<path d="M9.70711 8.29289C9.31658 7.90237 8.68342 7.90237 8.29289 8.29289C7.90237 8.68342 7.90237 9.31658 8.29289 9.70711L13 14.4142V15C13 16.6569 14.3431 18 16 18C16.1836 18 16.3633 17.9835 16.5377 17.9519L18.1169 19.5311C17.474 19.8319 16.7566 20 16 20C13.2386 20 11 17.7614 11 15V14C11 13.4477 10.5523 13 10 13C9.44772 13 9 13.4477 9 14V15C9 18.5273 11.609 21.4453 15.0024 21.9295C15.0008 21.9528 15 21.9763 15 22V24C15 24.5523 15.4477 25 16 25C16.5523 25 17 24.5523 17 24V22C17 21.9763 16.9992 21.9528 16.9976 21.9295C17.9359 21.7956 18.8142 21.4756 19.594 21.0082L22.2929 23.7071C22.6834 24.0976 23.3166 24.0976 23.7071 23.7071C24.0976 23.3166 24.0976 22.6834 23.7071 22.2929L9.70711 8.29289Z" fill="#999999"/>
<path d="M23 15C23 16.4658 22.5495 17.8264 21.7793 18.9509L20.3301 17.5017C20.7562 16.7659 21 15.9114 21 15V14C21 13.4477 21.4477 13 22 13C22.5523 13 23 13.4477 23 14V15Z" fill="#999999"/>
</svg>
