<svg width="32" height="32" viewBox="0 0 32 32" fill="none" xmlns="http://www.w3.org/2000/svg">
<rect width="32" height="32" rx="4" fill="none"/>
<path fill-rule="evenodd" clip-rule="evenodd" d="M7.29289 7.29289C7.68342 6.90237 8.31658 6.90237 8.70711 7.29289L24.7071 23.2929C25.0976 23.6834 25.0976 24.3166 24.7071 24.7071C24.3166 25.0976 23.6834 25.0976 23.2929 24.7071L18.9642 20.3785C18.7873 21.3021 17.9752 22 17 22H8C6.89543 22 6 21.1046 6 20V12C6 10.8954 6.89543 10 8 10H8.58579L7.29289 8.70711C6.90237 8.31658 6.90237 7.68342 7.29289 7.29289ZM26 20.2338C26 20.664 25.7402 21.0032 25.3952 21.1525L21 16.7573V13.5662C21 13.2149 21.1843 12.8894 21.4855 12.7087L24.4855 10.9087C25.152 10.5088 26 10.9889 26 11.7662V20.2338ZM19 12V14.7573L14.2427 10H17C18.1046 10 19 10.8954 19 12Z" fill="#999999"/>
</svg>
