<svg width="24" height="24" viewBox="0 0 24 24" fill="none" xmlns="http://www.w3.org/2000/svg">
<path d="M3.87868 3.87868C3.36902 4.38834 3.17027 5.01669 3.08214 5.67221C2.9999 6.28387 2.99995 7.04768 3 7.93417C3 7.95604 3 7.97798 3 8V12L3 12.0658C2.99995 12.9523 2.9999 13.7161 3.08214 14.3278C3.17027 14.9833 3.36902 15.6117 3.87868 16.1213C4.38834 16.631 5.01669 16.8297 5.67221 16.9179C6.28387 17.0001 7.04768 17.0001 7.93417 17L8 17H16L16.0658 17C16.9523 17.0001 17.7161 17.0001 18.3278 16.9179C18.9833 16.8297 19.6117 16.631 20.1213 16.1213C20.631 15.6117 20.8297 14.9833 20.9179 14.3278C21.0001 13.7161 21.0001 12.9523 21 12.0658L21 12V8L21 7.93419C21.0001 7.0477 21.0001 6.28387 20.9179 5.67221C20.8297 5.01669 20.631 4.38834 20.1213 3.87868C19.6117 3.36902 18.9833 3.17027 18.3278 3.08214C17.7161 2.9999 16.9523 2.99995 16.0658 3L16 3H8C7.97798 3 7.95604 3 7.93417 3C7.04768 2.99995 6.28387 2.9999 5.67221 3.08214C5.01669 3.17027 4.38834 3.36902 3.87868 3.87868Z" stroke="white" stroke-width="2"/>
<path fill-rule="evenodd" clip-rule="evenodd" d="M6 4C4.34315 4 3 5.34315 3 7V15C3 16.6569 4.34315 18 6 18H18C19.6569 18 21 16.6569 21 15V7C21 5.34315 19.6569 4 18 4H6ZM12.7071 6.29289C12.3166 5.90237 11.6834 5.90237 11.2929 6.29289L7.29289 10.2929C6.90237 10.6834 6.90237 11.3166 7.29289 11.7071C7.68342 12.0976 8.31658 12.0976 8.70711 11.7071L11 9.41421V14C11 14.5523 11.4477 15 12 15C12.5523 15 13 14.5523 13 14V9.41421L15.2929 11.7071C15.6834 12.0976 16.3166 12.0976 16.7071 11.7071C17.0976 11.3166 17.0976 10.6834 16.7071 10.2929L12.7071 6.29289Z" fill="white"/>
<path fill-rule="evenodd" clip-rule="evenodd" d="M8 21C8 21.5523 8.5625 22 8.94416 22H16.0558C16.4375 22 17 21.5523 17 21C17 20.4477 16.4375 20 16.0558 20H8.94416C8.5625 20 8 20.4477 8 21Z" fill="white"/>
</svg>
