<?xml version="1.0" encoding="UTF-8"?>
<svg width="22px" height="22px" viewBox="0 0 22 22" version="1.1" xmlns="http://www.w3.org/2000/svg" xmlns:xlink="http://www.w3.org/1999/xlink">
    <!-- Generator: Sketch 52.5 (67469) - http://www.bohemiancoding.com/sketch -->
    <title>settings</title>
    <desc>Created with Sketch.</desc>
    <g id="Video-Recorder" stroke="none" stroke-width="1" fill="none" fill-rule="evenodd" opacity="0.8">
        <g id="Record---Start-Option2" transform="translate(-1054.000000, -221.000000)">
            <g id="Video" transform="translate(239.000000, 200.000000)">
                <g id="Settings">
                    <g transform="translate(810.000000, 16.000000)">
                        <g id="settings" transform="translate(4.000000, 4.000000)">
                            <rect id="boundries" x="0" y="0" width="24" height="24"></rect>
                            <path d="M21.108027,13.063507 C21.1877692,12.3726762 21.1877692,11.6757457 21.1157207,11.0381856 C21.0818601,10.8441841 20.9126234,10.7031535 20.7240166,10.7047232 C19.7775837,10.7213827 18.920056,10.1493126 18.5719682,9.26905817 C18.2238804,8.38880379 18.4582296,7.3849619 19.1593195,6.75051827 C19.2822968,6.63897719 19.2973323,6.45103407 19.1880649,6.31430159 C18.7632293,5.77212378 18.2772531,5.2807763 17.7408597,4.85087286 C17.608675,4.74525886 17.4171392,4.76069607 17.278892,4.91232366 C16.8282429,5.37234895 16.2097678,5.6291398 15.5778369,5.62361853 C15.2962949,5.62488669 15.0171364,5.57199352 14.7383144,5.4607434 C13.8503814,5.08599961 13.2937388,4.19368458 13.348,3.22504199 C13.3584699,3.05882412 13.2371505,2.91342885 13.073479,2.89416614 C12.388297,2.81485619 11.6963568,2.81306227 11.0121882,2.88866087 C10.8450174,2.90739595 10.7202663,3.05138343 10.7254582,3.21723585 C10.7575663,4.1667445 10.2004084,5.0375824 9.2953246,5.41821541 C9.03787156,5.51628297 8.7642934,5.56513622 8.50761188,5.56224094 C7.86388531,5.5686675 7.24527047,5.3128084 6.77379564,4.8321528 C6.7108567,4.76380769 6.62227262,4.72479818 6.53775578,4.72449991 C6.46146194,4.72496392 6.38742441,4.75042957 6.33423543,4.79135243 C5.786067,5.2225264 5.2887647,5.71470188 4.85729795,6.25163179 C4.75047338,6.38717287 4.76599025,6.58210346 4.88760311,6.69418476 C5.60060995,7.34081379 5.83104119,8.36538979 5.44406941,9.29888905 C5.03673427,10.1550103 4.15859035,10.6862066 3.21137612,10.6495676 C3.05163951,10.6434173 2.91452663,10.7622484 2.89619833,10.9364018 C2.81266811,11.6246307 2.81266811,12.3204354 2.88957122,12.9634965 C2.92332227,13.1594275 3.09452683,13.3017344 3.30546486,13.2990213 L3.37500657,13.2992208 C4.27921578,13.3180893 5.08520257,13.8739422 5.42605788,14.7171664 C5.77666813,15.5985778 5.54859575,16.6048777 4.84591361,17.2547879 C4.72510044,17.3644594 4.71025382,17.5491143 4.81794552,17.6842241 C5.24123645,18.2265338 5.72502698,18.7187715 6.25674381,19.1488208 C6.39121687,19.2565901 6.58632719,19.2411358 6.72506494,19.0892125 C7.17551322,18.6279711 7.79461312,18.3704256 8.42599155,18.3760722 C8.7094271,18.3744501 8.99045201,18.42819 9.27103729,18.541655 C10.1519791,18.918881 10.7051263,19.8044752 10.6568683,20.7750172 C10.6461907,20.9410189 10.7673535,21.0863202 10.9319319,21.1055729 C11.6167839,21.1851993 12.3084517,21.1869925 12.9922269,21.1110838 C13.1598397,21.0922003 13.284837,20.9477378 13.2794578,20.7798814 C13.2482973,19.8311989 13.8056976,18.9616545 14.6998289,18.5861043 C14.9580342,18.4843479 15.2332691,18.4327413 15.4973485,18.4340828 C16.1434694,18.4276428 16.7639994,18.6862797 17.2285297,19.164699 C17.2922477,19.2333081 17.3815787,19.2724006 17.4683105,19.2726581 C17.5391861,19.2723137 17.607934,19.2484048 17.6658429,19.2030447 C18.216611,18.7741757 18.7158116,18.2829111 19.1475758,17.7464639 C19.2546287,17.6105977 19.2390846,17.4152281 19.1206144,17.3059324 C18.4219169,16.6783765 18.1813319,15.6856162 18.5152241,14.8078231 C18.8491162,13.93003 19.6886662,13.348128 20.6322575,13.3435567 L20.7246895,13.3435567 L20.7956506,13.3435686 C20.9556599,13.3427542 21.0898137,13.2224785 21.108027,13.063507 Z M22.9293581,13.2729594 C22.8055789,14.3533483 21.8932015,15.1713419 20.8003156,15.1768919 L20.7246895,15.1768919 L20.6367088,15.1768811 C20.4553662,15.1777617 20.2932539,15.2901237 20.2287812,15.4596205 C20.1643086,15.6291174 20.2107642,15.8208138 20.3543983,15.9499249 C21.1857153,16.7161398 21.2873119,17.9930822 20.5817351,18.8884867 C20.0552748,19.542684 19.4547589,20.1336532 18.7943241,20.6479118 C18.4182726,20.9425055 17.9549163,21.1036505 17.4703179,21.1059793 C16.8686427,21.1043732 16.2946109,20.8531685 15.8994137,20.4272919 C15.7987603,20.3237015 15.6600508,20.2658874 15.5021707,20.2673624 C15.4576289,20.2671527 15.4134554,20.2754353 15.3910994,20.2839967 C15.2166912,20.3573 15.1055942,20.5306114 15.1118286,20.7204263 C15.1478411,21.8441254 14.3146825,22.8070277 13.1959939,22.9330593 C12.3731343,23.0244098 11.5425749,23.0222565 10.7195602,22.926566 C9.58561164,22.7939165 8.75403042,21.7966636 8.82654987,20.6707468 C8.83604395,20.4794159 8.72546974,20.3023855 8.56711572,20.2343579 C8.52561301,20.2176069 8.48123871,20.2091213 8.42318004,20.209357 C8.2778278,20.2080793 8.13824342,20.2661464 8.05959124,20.3458115 C7.29260681,21.1906991 6.0006604,21.2930315 5.10704552,20.5768597 C4.46370341,20.0565427 3.88183469,19.4645144 3.37868339,18.8198078 C2.67393264,17.9361574 2.77677603,16.6570428 3.60733708,15.9031324 C3.7471526,15.7738062 3.79294484,15.5717619 3.72444939,15.3995304 C3.66032036,15.240892 3.50783084,15.1357268 3.35588229,15.1323565 C2.2172622,15.1468484 1.26965588,14.3591884 1.07621882,13.2295549 C0.974880972,12.394604 0.974880972,11.5504622 1.07450629,10.7306756 C1.1915137,9.61108246 2.15705575,8.77427936 3.28207543,8.81759609 C3.49697438,8.82590855 3.69616885,8.70541423 3.76908948,8.5550765 C3.84125199,8.38038391 3.79600367,8.17919441 3.65068578,8.04736688 C2.81933101,7.28143293 2.71769373,6.00461465 3.42277161,5.11006355 C3.94675195,4.45792851 4.54326761,3.8675625 5.20804534,3.34472546 C5.58613736,3.05341378 6.04931393,2.8941014 6.53499916,2.89118596 C7.13837694,2.89304107 7.71366074,3.14637705 8.10204532,3.56882442 C8.20400441,3.67262208 8.34381938,3.73044955 8.50811144,3.72900218 C8.55409094,3.72948627 8.5997525,3.72133242 8.61318996,3.71680481 C8.78821275,3.6430831 8.89958872,3.46900247 8.89309597,3.27691308 C8.85791659,2.15374479 9.69127391,1.19188504 10.8094172,1.06657416 C11.6319903,0.975680939 12.4621897,0.977833307 13.2860148,1.0731929 C14.4186525,1.2064829 15.2494029,2.20209535 15.1780885,3.33391597 C15.167508,3.52286993 15.2768124,3.69808818 15.433912,3.76459657 C15.4770679,3.78178418 15.5231268,3.79051113 15.5816023,3.79032659 C15.7273211,3.79158157 15.8672742,3.73347303 15.9445672,3.65558208 C16.7082711,2.81214404 17.9963253,2.70833072 18.8863331,3.41943762 C19.5338541,3.93840492 20.1193316,4.53035346 20.625563,5.17648078 C21.3339054,6.06241075 21.2311833,7.34643726 20.3902322,8.10918339 C20.2549165,8.23163601 20.209735,8.42517248 20.2768448,8.59488181 C20.3439547,8.76459114 20.5092824,8.87488384 20.700071,8.87156329 C21.7937781,8.86224146 22.7336965,9.64550678 22.9293581,10.7754625 C23.0251354,11.6052067 23.0251354,12.4432152 22.9293581,13.2729594 Z M11.9988116,14.4359418 C13.3492847,14.4325661 14.4405937,13.336881 14.4385648,11.9864052 C14.4385569,10.9947715 13.8406823,10.1009688 12.9241515,9.72240752 C12.0076207,9.34384619 10.9532682,9.55521756 10.2534818,10.2578101 C9.55369535,10.9604027 9.34654518,12.0155927 9.72877142,12.9306012 C10.1109977,13.8456096 11.0071858,14.4399024 11.9988116,14.4359418 Z M12.0047634,16.2692669 C10.2723342,16.2761873 8.70540142,15.237101 8.03710115,13.6372622 C7.36880087,12.0374233 7.73099085,10.1924851 8.95452657,8.96404297 C10.1780623,7.73560085 12.0215362,7.36603035 13.6240368,8.02792274 C15.2265374,8.68981514 16.2718862,10.2525769 16.271899,11.98502 C16.2754477,14.3459344 14.3656731,16.2633672 12.0047634,16.2692669 Z" id="gear" fill="#FFFFFF" fill-rule="nonzero"></path>
                        </g>
                    </g>
                </g>
            </g>
        </g>
    </g>
</svg>